<?xml version="1.0" encoding="UTF-8"?>
<svg xmlns="http://www.w3.org/2000/svg" xmlns:xlink="http://www.w3.org/1999/xlink" version="1.1" viewBox="0 0 512 512">
  <!-- Generator: Adobe Illustrator 29.8.2, SVG Export Plug-In . SVG Version: 2.1.1 Build 3)  -->
  <defs>
    <style>
      .st0 {
        fill: none;
      }

      .st1 {
        fill: #1d1d1b;
      }

      .st2 {
        isolation: isolate;
      }

      .st3 {
        mix-blend-mode: multiply;
      }

      .st4 {
        clip-path: url(#clippath-1);
      }

      .st5 {
        clip-path: url(#clippath);
      }
    </style>
    <clipPath id="clippath">
      <rect class="st0" x=".5" y=".5" width="511" height="511"/>
    </clipPath>
    <clipPath id="clippath-1">
      <rect class="st0" x=".5" y=".5" width="511" height="511"/>
    </clipPath>
  </defs>
  <g class="st2">
    <g id="Calque_1">
      <g class="st5">
        <g class="st4">
          <g class="st3">
            <path class="st1" d="M135.4,358.1c57.9,0,97.5-36.5,97.5-76.1s-36.1-65-72.1-73l-32.5-7.1c-12.9-3.1-20.5-6.7-20.5-15.6s7.6-15.6,24-15.6,28.5,5.3,31.6,24.5h1.8l63.2-15.6c-5.8-33-45.9-61.4-96.6-61.4s-94.4,33-94.4,74.8,37.8,57.9,64.6,64.6l41.9,10.2c10.7,2.7,18.7,7.1,18.7,15.6s-10.2,18.3-27.2,18.3-35.6-7.6-40.1-30.7h-1.8l-62.8,13.8c2.2,38.7,43.6,73.5,104.6,73.5"/>
          </g>
          <path d="M356.6,153.7c-.7.2-4.6,3.4-5.6,4.3-10.3,9.1-28.1,42.1-31.5,55.6-.9,3.7-4.3,20,.2,21.5,19.1-4,32.7-23.4,40.4-40.1,3.1-6.8,9-24,8.4-31.2-.5-4.9-8-11.2-12-10.2h0ZM389.7,390.9c-34.5,37.9-68.2,71.7-121.5,80.8-19.4,3.3-55.3-.3-65-19.8-18.6-37.3,8.9-79,30.9-108.5,9.7-13,41.9-48.4,56.6-52.9,7.9-2.4,25.7-2.8,26.6,8.1.7,8.7-24.9,27.7-10,36.8,33.5,20.7,98.4-38.2,83.9-76.6-4-10.7-11.7-11.8-21.8-10-28,4.7-50,25.8-77.5,27.6-35,2.2-32.9-31.5-27-55.6,4.2-16.6,9.2-31.3,18.9-45.7,7.7-11.4,17.3-22.2,26.4-32.4l.4,1.8c1.4-2.2,4.3-3.3,5.8-4.9,6.1-6.3,8.2-10.7,17.1-15.3,21.7-11.2,55.5-15.2,67.5,11.5,2.6,5.8,1.9,11.5,4.8,16.8,3,.7,13.6-21.3,18.6-23.5,2-.9,11.5-3.1,13.8-3.3,16.7-1.2,19.9,14.5,15.1,27.7-6.1,16.7-30.7,41.7-28.2,57.8.2,1.2.7,3,1.7,3.7,2.8,1.6,15,2.6,20.2,4.9,14.9,6.5,21.6,18.5,22.8,34.6,1.5,18.5-4.3,27.4-11.8,42.8-17.9,37.1-40.9,63.4-68.4,93.5h0Z"/>
        </g>
      </g>
    </g>
  </g>
</svg>